REM DIRINDEX 1\8,1\2\11,1\3\12,1\3\14,1\5\15,1\5\16,1\6\17,1\6\18,1\4\19,1\4\20,1\4\21,1\4\22,1\7\23,1\7\24,1\7\25,1\2\9\26,1\2\9\27,1\2\10\28,1\2\10\29,1\2\10\30,1\2\10\31,1\2\10\32,1\3\13\33,1\3\13\34,1\3\13\35
REM DIRNAME folder01,folder02,folder03,folder04,folder05,folder06,folder07,folder08,folder09,folder10,folder11,folder12,folder13,folder14,folder15,folder16,folder17,folder18,folder19,folder20,folder21,folder22,folder23,folder24,folder25,folder26,folder27,folder28,folder29,folder30,folder31,folder32,folder33,folder34,folder35
TITLE ""
FILE "64 064_UNIT6_SET5.mp3" MP3
  TRACK 01 AUDIO
    TITLE "11:cjc123_6413"
    INDEX 01 00:00:00
  TRACK 02 AUDIO
    TITLE "0:"
    INDEX 01 00:02:67
  TRACK 03 AUDIO
    TITLE "28:cjc123_6414"
    INDEX 01 00:03:37
  TRACK 04 AUDIO
    TITLE "0:"
    INDEX 01 00:04:70
  TRACK 05 AUDIO
    TITLE "29:cjc123_6415"
    INDEX 01 00:05:07
  TRACK 06 AUDIO
    TITLE "0:"
    INDEX 01 00:06:35
  TRACK 07 AUDIO
    TITLE "30:cjc123_6416"
    INDEX 01 00:06:49
  TRACK 08 AUDIO
    TITLE "0:"
    INDEX 01 00:08:01
  TRACK 09 AUDIO
    TITLE "31:cjc123_6417"
    INDEX 01 00:08:50
  TRACK 10 AUDIO
    TITLE "0:"
    INDEX 01 00:13:33
  TRACK 11 AUDIO
    TITLE "32:cjc123_6418"
    INDEX 01 00:13:67
  TRACK 12 AUDIO
    TITLE "0:"
    INDEX 01 00:18:17
  TRACK 13 AUDIO
    TITLE "28:cjc123_6419"
    INDEX 01 00:18:68
  TRACK 14 AUDIO
    TITLE "0:"
    INDEX 01 00:20:02
  TRACK 15 AUDIO
    TITLE "29:cjc123_6420"
    INDEX 01 00:20:10
  TRACK 16 AUDIO
    TITLE "0:"
    INDEX 01 00:21:49
  TRACK 17 AUDIO
    TITLE "30:cjc123_6421"
    INDEX 01 00:21:64
  TRACK 18 AUDIO
    TITLE "0:"
    INDEX 01 00:23:06
  TRACK 19 AUDIO
    TITLE "31:cjc123_6422"
    INDEX 01 00:23:53
  TRACK 20 AUDIO
    TITLE "0:"
    INDEX 01 00:27:59
  TRACK 21 AUDIO
    TITLE "32:cjc123_6423"
    INDEX 01 00:28:15
  TRACK 22 AUDIO
    TITLE "0:"
    INDEX 01 00:33:13
  TRACK 23 AUDIO
    TITLE "28:cjc123_6424"
    INDEX 01 00:33:54
  TRACK 24 AUDIO
    TITLE "0:"
    INDEX 01 00:34:67
  TRACK 25 AUDIO
    TITLE "29:cjc123_6425"
    INDEX 01 00:35:08
  TRACK 26 AUDIO
    TITLE "0:"
    INDEX 01 00:36:23
  TRACK 27 AUDIO
    TITLE "30:cjc123_6426"
    INDEX 01 00:36:35
  TRACK 28 AUDIO
    TITLE "0:"
    INDEX 01 00:37:54
  TRACK 29 AUDIO
    TITLE "31:cjc123_6427"
    INDEX 01 00:38:30
  TRACK 30 AUDIO
    TITLE "0:"
    INDEX 01 00:43:60
  TRACK 31 AUDIO
    TITLE "32:cjc123_6428"
    INDEX 01 00:44:22
  TRACK 32 AUDIO
    TITLE "0:"
    INDEX 01 00:50:13
  TRACK 33 AUDIO
    TITLE "28:cjc123_6429"
    INDEX 01 00:50:60
  TRACK 34 AUDIO
    TITLE "0:"
    INDEX 01 00:52:02
  TRACK 35 AUDIO
    TITLE "29:cjc123_6430"
    INDEX 01 00:52:22
  TRACK 36 AUDIO
    TITLE "0:"
    INDEX 01 00:53:51
  TRACK 37 AUDIO
    TITLE "30:cjc123_6431"
    INDEX 01 00:53:64
  TRACK 38 AUDIO
    TITLE "0:"
    INDEX 01 00:55:04
  TRACK 39 AUDIO
    TITLE "31:cjc123_6432"
    INDEX 01 00:55:63
  TRACK 40 AUDIO
    TITLE "0:"
    INDEX 01 01:00:72
  TRACK 41 AUDIO
    TITLE "32:cjc123_6433"
    INDEX 01 01:01:54
  TRACK 42 AUDIO
    TITLE "0:"
    INDEX 01 01:07:02
  TRACK 43 AUDIO
    TITLE "28:cjc123_6434"
    INDEX 01 01:07:29
  TRACK 44 AUDIO
    TITLE "0:"
    INDEX 01 01:08:48
  TRACK 45 AUDIO
    TITLE "29:cjc123_6435"
    INDEX 01 01:08:60
  TRACK 46 AUDIO
    TITLE "0:"
    INDEX 01 01:10:22
  TRACK 47 AUDIO
    TITLE "30:cjc123_6436"
    INDEX 01 01:10:26
  TRACK 48 AUDIO
    TITLE "0:"
    INDEX 01 01:11:35
  TRACK 49 AUDIO
    TITLE "31:cjc123_6437"
    INDEX 01 01:12:15
  TRACK 50 AUDIO
    TITLE "0:"
    INDEX 01 01:17:24
  TRACK 51 AUDIO
    TITLE "32:cjc123_6438"
    INDEX 01 01:17:55
  TRACK 52 AUDIO
    TITLE "0:"
    INDEX 01 01:22:54
  TRACK 53 AUDIO
    TITLE "28:cjc123_6439"
    INDEX 01 01:23:18
  TRACK 54 AUDIO
    TITLE "0:"
    INDEX 01 01:24:53
  TRACK 55 AUDIO
    TITLE "29:cjc123_6440"
    INDEX 01 01:24:59
  TRACK 56 AUDIO
    TITLE "0:"
    INDEX 01 01:26:38
  TRACK 57 AUDIO
    TITLE "30:cjc123_6441"
    INDEX 01 01:26:44
  TRACK 58 AUDIO
    TITLE "0:"
    INDEX 01 01:28:04
  TRACK 59 AUDIO
    TITLE "31:cjc123_6442"
    INDEX 01 01:28:57
  TRACK 60 AUDIO
    TITLE "0:"
    INDEX 01 01:32:64
  TRACK 61 AUDIO
    TITLE "32:cjc123_6443"
    INDEX 01 01:33:21
  TRACK 62 AUDIO
    TITLE "0:"
    INDEX 01 01:37:58
  TRACK 63 AUDIO
    TITLE "28:cjc123_6444"
    INDEX 01 01:38:30
  TRACK 64 AUDIO
    TITLE "0:"
    INDEX 01 01:39:68
  TRACK 65 AUDIO
    TITLE "29:cjc123_6445"
    INDEX 01 01:40:01
  TRACK 66 AUDIO
    TITLE "0:"
    INDEX 01 01:41:71
  TRACK 67 AUDIO
    TITLE "30:cjc123_6446"
    INDEX 01 01:42:10
  TRACK 68 AUDIO
    TITLE "0:"
    INDEX 01 01:43:43
  TRACK 69 AUDIO
    TITLE "31:cjc123_6447"
    INDEX 01 01:44:32
  TRACK 70 AUDIO
    TITLE "0:"
    INDEX 01 01:49:10
  TRACK 71 AUDIO
    TITLE "32:cjc123_6448"
    INDEX 01 01:49:41
  TRACK 72 AUDIO
    TITLE "0:"
    INDEX 01 01:55:30
  TRACK 73 AUDIO
    TITLE "28:cjc123_6449"
    INDEX 01 01:55:62
  TRACK 74 AUDIO
    TITLE "0:"
    INDEX 01 01:57:15
  TRACK 75 AUDIO
    TITLE "29:cjc123_6450"
    INDEX 01 01:57:31
  TRACK 76 AUDIO
    TITLE "0:"
    INDEX 01 01:59:34
  TRACK 77 AUDIO
    TITLE "30:cjc123_6451"
    INDEX 01 01:59:44
  TRACK 78 AUDIO
    TITLE "0:"
    INDEX 01 02:01:07
  TRACK 79 AUDIO
    TITLE "31:cjc123_6452"
    INDEX 01 02:01:62
  TRACK 80 AUDIO
    TITLE "0:"
    INDEX 01 02:06:10
  TRACK 81 AUDIO
    TITLE "32:cjc123_6453"
    INDEX 01 02:06:46
  TRACK 82 AUDIO
    TITLE "0:"
    INDEX 01 02:12:13
  TRACK 83 AUDIO
    TITLE "28:cjc123_6454"
    INDEX 01 02:12:62
  TRACK 84 AUDIO
    TITLE "0:"
    INDEX 01 02:14:65
  TRACK 85 AUDIO
    TITLE "29:cjc123_6455"
    INDEX 01 02:15:03
  TRACK 86 AUDIO
    TITLE "0:"
    INDEX 01 02:17:57
  TRACK 87 AUDIO
    TITLE "30:cjc123_6456"
    INDEX 01 02:17:65
  TRACK 88 AUDIO
    TITLE "0:"
    INDEX 01 02:19:56
  TRACK 89 AUDIO
    TITLE "31:cjc123_6457"
    INDEX 01 02:20:34
  TRACK 90 AUDIO
    TITLE "0:"
    INDEX 01 02:26:19
  TRACK 91 AUDIO
    TITLE "32:cjc123_6458"
    INDEX 01 02:26:50
  TRACK 92 AUDIO
    TITLE "0:"
    INDEX 01 02:33:64
  TRACK 93 AUDIO
    TITLE "28:cjc123_6459"
    INDEX 01 02:34:32
  TRACK 94 AUDIO
    TITLE "0:"
    INDEX 01 02:35:59
  TRACK 95 AUDIO
    TITLE "29:cjc123_6460"
    INDEX 01 02:35:67
  TRACK 96 AUDIO
    TITLE "0:"
    INDEX 01 02:37:09
  TRACK 97 AUDIO
    TITLE "30:cjc123_6461"
    INDEX 01 02:37:15
  TRACK 98 AUDIO
    TITLE "0:"
    INDEX 01 02:38:42
  TRACK 99 AUDIO
    TITLE "31:cjc123_6462"
    INDEX 01 02:39:14
  TRACK 100 AUDIO
    TITLE "0:"
    INDEX 01 02:44:52
  TRACK 101 AUDIO
    TITLE "32:cjc123_6463"
    INDEX 01 02:45:07
  TRACK 102 AUDIO
    TITLE "0:"
    INDEX 01 02:51:01
  TRACK 103 AUDIO
    TITLE "28:cjc123_6464"
    INDEX 01 02:51:42
  TRACK 104 AUDIO
    TITLE "0:"
    INDEX 01 02:52:65
  TRACK 105 AUDIO
    TITLE "29:cjc123_6465"
    INDEX 01 02:52:73
  TRACK 106 AUDIO
    TITLE "0:"
    INDEX 01 02:54:45
  TRACK 107 AUDIO
    TITLE "30:cjc123_6466"
    INDEX 01 02:54:53
  TRACK 108 AUDIO
    TITLE "0:"
    INDEX 01 02:55:64
  TRACK 109 AUDIO
    TITLE "31:cjc123_6467"
    INDEX 01 02:56:40
  TRACK 110 AUDIO
    TITLE "0:"
    INDEX 01 03:01:47
  TRACK 111 AUDIO
    TITLE "32:cjc123_6468"
    INDEX 01 03:02:13
  TRACK 112 AUDIO
    TITLE "0:"
    INDEX 01 03:06:52
  TRACK 113 AUDIO
    TITLE "28:cjc123_6469"
    INDEX 01 03:07:20
  TRACK 114 AUDIO
    TITLE "0:"
    INDEX 01 03:08:39
  TRACK 115 AUDIO
    TITLE "29:cjc123_6470"
    INDEX 01 03:08:49
  TRACK 116 AUDIO
    TITLE "0:"
    INDEX 01 03:10:20
  TRACK 117 AUDIO
    TITLE "30:cjc123_6471"
    INDEX 01 03:10:28
  TRACK 118 AUDIO
    TITLE "0:"
    INDEX 01 03:11:49
  TRACK 119 AUDIO
    TITLE "31:cjc123_6472"
    INDEX 01 03:12:27
  TRACK 120 AUDIO
    TITLE "0:"
    INDEX 01 03:16:33
  TRACK 121 AUDIO
    TITLE "32:cjc123_6473"
    INDEX 01 03:16:66
  TRACK 122 AUDIO
    TITLE "0:"
    INDEX 01 03:21:04
  TRACK 123 AUDIO
    TITLE "28:cjc123_6474"
    INDEX 01 03:21:47
  TRACK 124 AUDIO
    TITLE "0:"
    INDEX 01 03:23:03
  TRACK 125 AUDIO
    TITLE "29:cjc123_6475"
    INDEX 01 03:23:11
  TRACK 126 AUDIO
    TITLE "0:"
    INDEX 01 03:24:63
  TRACK 127 AUDIO
    TITLE "30:cjc123_6476"
    INDEX 01 03:24:71
  TRACK 128 AUDIO
    TITLE "0:"
    INDEX 01 03:26:15
  TRACK 129 AUDIO
    TITLE "31:cjc123_6477"
    INDEX 01 03:26:62
  TRACK 130 AUDIO
    TITLE "0:"
    INDEX 01 03:31:58
  TRACK 131 AUDIO
    TITLE "32:cjc123_6478"
    INDEX 01 03:32:16
  TRACK 132 AUDIO
    TITLE "0:"
    INDEX 01 03:37:66
  TRACK 133 AUDIO
    TITLE "28:cjc123_6479"
    INDEX 01 03:38:32
  TRACK 134 AUDIO
    TITLE "0:"
    INDEX 01 03:40:47
  TRACK 135 AUDIO
    TITLE "29:cjc123_6480"
    INDEX 01 03:40:55
  TRACK 136 AUDIO
    TITLE "0:"
    INDEX 01 03:42:36
  TRACK 137 AUDIO
    TITLE "30:cjc123_6481"
    INDEX 01 03:42:42
  TRACK 138 AUDIO
    TITLE "0:"
    INDEX 01 03:44:70
  TRACK 139 AUDIO
    TITLE "31:cjc123_6482"
    INDEX 01 03:45:46
  TRACK 140 AUDIO
    TITLE "0:"
    INDEX 01 03:51:33
  TRACK 141 AUDIO
    TITLE "32:cjc123_6483"
    INDEX 01 03:51:62
  TRACK 142 AUDIO
    TITLE "0:"
    INDEX 01 03:58:04
  TRACK 143 AUDIO
    TITLE "28:cjc123_6484"
    INDEX 01 03:58:47
  TRACK 144 AUDIO
    TITLE "0:"
    INDEX 01 03:59:74
  TRACK 145 AUDIO
    TITLE "29:cjc123_6485"
    INDEX 01 04:00:06
  TRACK 146 AUDIO
    TITLE "0:"
    INDEX 01 04:01:39
  TRACK 147 AUDIO
    TITLE "30:cjc123_6486"
    INDEX 01 04:01:43
  TRACK 148 AUDIO
    TITLE "0:"
    INDEX 01 04:02:74
  TRACK 149 AUDIO
    TITLE "31:cjc123_6487"
    INDEX 01 04:03:46
  TRACK 150 AUDIO
    TITLE "0:"
    INDEX 01 04:07:06
  TRACK 151 AUDIO
    TITLE "32:cjc123_6488"
    INDEX 01 04:07:34
  TRACK 152 AUDIO
    TITLE "0:"
    INDEX 01 04:11:08
